<svg width="120" height="24" viewBox="0 0 120 24" fill="none" xmlns="http://www.w3.org/2000/svg">
<g clip-path="url(#clip0_1978_871)">
<path fill-rule="evenodd" clip-rule="evenodd" d="M5.73181 18.9787C7.22518 19.7334 8.88691 20.0931 10.5587 20.0235C12.2305 19.954 13.8566 19.4575 15.2821 18.5814C16.7076 17.7053 17.8851 16.4787 18.7022 15.0186C19.5194 13.5585 19.949 11.9135 19.9503 10.2403C19.9503 10.1218 19.9503 9.99736 19.9503 9.87887V7.95346H10.4713C10.1503 7.92623 9.8272 7.96472 9.52161 8.06658C9.21603 8.16845 8.93442 8.33154 8.69399 8.54589C8.25864 9.03278 8.03112 9.67071 8.06008 10.3232L8.09563 12.9299C8.09563 12.9299 12.8707 11.8872 13.1017 11.9169L5.73181 18.9787Z" fill="#22A6DA"></path>
<path fill-rule="evenodd" clip-rule="evenodd" d="M19.9562 0.447282H10.1632C8.11778 0.446195 6.12333 1.08561 4.4598 2.27579C2.79627 3.46598 1.54717 5.14717 0.887812 7.08343C0.228451 9.01969 0.191929 11.1138 0.783371 13.0719C1.37481 15.03 2.56453 16.7537 4.18554 18.0012V11.0104C4.18554 7.56244 6.50197 4.55286 10.027 4.55286H19.9562V0.447282Z" fill="#303040"></path>
<path fill-rule="evenodd" clip-rule="evenodd" d="M36.8347 4.83724V6.56123H31.7279V9.28051H36.5799V11.0578H31.7042V15.6255H29.7432V4.83724H36.8347ZM75.4615 4.83724V6.57308H72.369V15.6433H70.3606V6.57308H67.2622V4.83724H75.4615ZM45.1051 4.83724V15.6433H43.1027V4.83724H45.1051ZM51.9359 15.6433V4.83724H53.9324L59.6435 12.7107V4.83724H61.5689V15.6433H59.5664L53.8376 7.62761V15.6433H51.9359ZM88.5603 4.83724V6.56123H83.1454V9.28051H88.2996V11.0578H83.1276V13.9074H88.6669V15.6433H81.1607V4.83724H88.5603ZM103.691 15.193C102.675 15.5584 101.601 15.737 100.522 15.7203C96.6391 15.7203 94.6999 13.8442 94.7038 10.0921C94.7038 6.53753 96.6431 4.76022 100.522 4.76022C101.602 4.74236 102.676 4.92309 103.691 5.29342V7.10627C102.736 6.70246 101.707 6.50076 100.67 6.51383C98.0787 6.51383 96.7833 7.71055 96.7833 10.104C96.7833 12.6989 98.0787 13.9943 100.67 13.9904C101.707 14.0035 102.736 13.8017 103.691 13.3979V15.2108V15.193ZM110.149 15.6433V4.83724H112.151V9.29828H117.483V4.83724H119.485V15.6433H117.483V11.0341H112.151V15.6433H110.149Z" fill="#303040"></path>
</g>
<defs>
<clipPath id="clip0_1978_871">
<rect width="120" height="24" fill="white"></rect>
</clipPath>
</defs>
</svg>